# xmcd CD database file
# Copyright (C) 1996 Ti Kan
#
# Track frame offsets:
#	187
#	13800
#	27007
#	42487
#	55982
#	70332
#	83992
#	98307
#	109952
#	123547
#	138822
#	154077
#	167797
#	180602
#	193232
#	208657
#
# Disc length: 2958 seconds
#
# Revision: 1
# Processed by: cddbd v1.4b41PL1 Copyright (c) Steve Scherf et al.
# Submitted via: EasyCD 2.21 - (C) 1996 Greg Leichner
#
DISCID=dd0b8c10
DTITLE=Jimmie Rodgers - A Country Legacy
DYEAR=1900
DGENRE=
TTITLE0=Sleep Baby Sleep
TTITLE1=In the Jailhouse Now No. 2
TTITLE2=Ben Dewberry's Final Run
TTITLE3=You and My Old Guitar
TTITLE4=Whippin' That Old T.B.
TTITLE5=T.B. Blues
TTITLE6=Old Love Letters (Bring Memories of You)
TTITLE7=Home Call
TTITLE8=Mule Skinner Blues (Blue Yodel No. 8)
TTITLE9=Away out on the Mountain
TTITLE10=Blue Yodel No. 1 (T. for Texas)
TTITLE11=Moonlight and Skies
TTITLE12=Any Old Time
TTITLE13=Waiting for a Train
TTITLE14=Mother, Queen of My Heart
TTITLE15=Daddy and Home
EXTD=
EXTT0=
EXTT1=
EXTT2=
EXTT3=
EXTT4=
EXTT5=
EXTT6=
EXTT7=
EXTT8=
EXTT9=
EXTT10=
EXTT11=
EXTT12=
EXTT13=
EXTT14=
EXTT15=
PLAYORDER=
